<svg data-v-0dd9719b="" version="1.0" xmlns="http://www.w3.org/2000/svg" xmlns:xlink="http://www.w3.org/1999/xlink" width="100%" height="100%" viewBox="0 0 340.000000 250.000000" preserveAspectRatio="xMidYMid meet" color-interpolation-filters="sRGB" style="margin: auto;"> <rect data-v-0dd9719b="" x="0" y="0" width="100%" height="100%" fill="#fff" fill-opacity="1" class="background"></rect> <rect data-v-0dd9719b="" x="0" y="0" width="100%" height="100%" fill="url(#watermark)" fill-opacity="1" class="watermarklayer"></rect> <g data-v-0dd9719b="" fill="#333" class="icon-text-wrapper icon-svg-group iconsvg" transform="translate(49.30999755859375,94.97988700866699)"><g class="iconsvg-imagesvg" transform="translate(0,0)"><g><rect fill="#333" fill-opacity="0" stroke-width="2" x="0" y="0" width="60" height="60.04022695205788" class="image-rect"></rect> <svg x="0" y="0" width="60" height="60.04022695205788" filtersec="colorsb6298547136" class="image-svg-svg primary" style="overflow: visible;"><svg xmlns="http://www.w3.org/2000/svg" viewBox="-0.000017462916730437428 -0.07714981585741043 100.01000213623047 100.0771484375"><title>资源 138</title><g fill-rule="evenodd"><path d="M49.32 100a49.87 49.87 0 0 1-37.38-17.57c6.48 2.4 19.86 7.61 29.52 13 3.4 1.89 5.94 3.39 7.86 4.57zm-16-57.5A106.67 106.67 0 0 0 2 36.11 50.12 50.12 0 0 0 0 50a50.88 50.88 0 0 0 .35 6 96.22 96.22 0 0 1 58.48 5c16.64 6.85 27.8 10.63 35.25 12.66a50.21 50.21 0 0 0 3.48-8.14C68.35 62.2 55.73 51.15 33.27 42.5zM73.9 28.28C61.12 21.26 55.42 14 55.42 14S64.76 31.16 82 35.43a136.42 136.42 0 0 0 16.67 3.13q-.5-2.13-1.17-4.17c-5.07-.19-14.74-1.25-23.6-6.11z" fill="#31bfce"></path><path d="M90.74 79a50.31 50.31 0 0 1-9.89 10.35 76.66 76.66 0 0 1-9.25-4.63C48 70.89 24.8 60.68 1.84 63.47a48.66 48.66 0 0 1-1.19-5.41c7.29-1.47 19.44-2.2 37.89 1.53C65.4 65 70.74 71.88 90.74 79zm-29.9-52.61a74.73 74.73 0 0 0-31.41-22 50.31 50.31 0 0 0-19.7 16c22.44-.81 36.19 5.75 58.05 21.61 14.37 10.38 25.5 13.43 31.85 14.26a50.71 50.71 0 0 0-.13-13.37c-13.69-1.42-29.56-5.54-38.66-16.5z" fill="#cae19f"></path><path d="M77.91 91.5a49.46 49.46 0 0 1-15.61 7 190.89 190.89 0 0 1-28.06-10.16A203 203 0 0 0 9.26 79a50.5 50.5 0 0 1-5.12-9c4-.74 11.45-1.29 22.88.74 17.63 3.1 27.9 5.99 50.89 20.76zM39.63 1.08C45.58 3.1 54.29 7.73 65 18.21 73.22 26.28 85 29.77 96.28 31A50.06 50.06 0 0 0 39.63 1z" fill="#0281a9"></path></g></svg></svg> <!----></g></g> <g transform="translate(67,2.8588619232177734)"><g data-gra="path-name" fill-rule="" class="tp-name iconsvg-namesvg" transform="translate(0,0)"><g transform="scale(1)"><g><path d="M4.48-18.54L4.48-21.8 40.47-21.8 40.47-18.54 4.48-18.54ZM34.19-12.35L10.77-12.35Q9.89-12.35 9.89-11.47L9.89-11.47 9.89-2.9Q9.89-2.02 10.77-2.02L10.77-2.02 34.19-2.02Q35.07-2.02 35.07-2.9L35.07-2.9 35.07-11.47Q35.07-12.35 34.19-12.35L34.19-12.35ZM6.72-15.95L38.23-15.95Q39.16-15.95 39.81-15.29L39.81-15.29Q40.47-14.63 40.47-13.71L40.47-13.71 40.47-0.66Q40.47 0.26 39.81 0.92L39.81 0.92Q39.16 1.58 38.23 1.58L38.23 1.58 6.72 1.58Q5.8 1.58 5.14 0.92L5.14 0.92Q4.48 0.26 4.48-0.66L4.48-0.66 4.48-13.71Q4.48-14.63 5.14-15.29L5.14-15.29Q5.8-15.95 6.72-15.95L6.72-15.95ZM31.42-36.96L13.54-36.96Q11.69-36.96 10.63-35.46L10.63-35.46 2.72-23.55 9.01-23.55 15.03-32.83Q15.42-33.4 16.13-33.4L16.13-33.4 28.83-33.4Q29.53-33.4 29.93-32.83L29.93-32.83 35.95-23.55 42.23-23.55 34.32-35.46Q33.27-36.96 31.42-36.96L31.42-36.96ZM54.89-11.73L57.57-11.73 57.57-2.77Q57.57-1.89 56.65-1.89L56.65-1.89 55.33-1.89 56.21 1.71 60.69 1.71Q61.61 1.71 62.27 1.05L62.27 1.05Q62.93 0.4 62.93-0.53L62.93-0.53 62.93-34.54Q62.93-35.46 62.27-36.12L62.27-36.12Q61.61-36.78 60.69-36.78L60.69-36.78 51.72-36.78Q50.8-36.78 50.14-36.12L50.14-36.12Q49.48-35.46 49.48-34.54L49.48-34.54 49.48-11.73Q49.48-4.57 47.72 1.71L47.72 1.71 53.09 1.71Q54.89-3.65 54.89-11.73L54.89-11.73ZM57.57-15.29L54.89-15.29 54.89-22.46 57.57-22.46 57.57-15.29ZM55.77-33.18L56.65-33.18Q57.57-33.18 57.57-32.3L57.57-32.3 57.57-26.02 54.89-26.02 54.89-32.3Q54.89-33.18 55.77-33.18L55.77-33.18ZM70.09-2.77L70.09-14.41 83.94-14.41Q84.86-14.41 85.52-15.07L85.52-15.07Q86.18-15.73 86.18-16.66L86.18-16.66 86.18-34.54Q86.18-35.46 85.52-36.12L85.52-36.12Q84.86-36.78 83.94-36.78L83.94-36.78 66.93-36.78Q66.01-36.78 65.35-36.12L65.35-36.12Q64.69-35.46 64.69-34.54L64.69-34.54 64.69-0.53Q64.69 0.4 65.35 1.05L65.35 1.05Q66.01 1.71 66.93 1.71L66.93 1.71 86.18 1.71 87.06-1.89 70.97-1.89Q70.09-1.89 70.09-2.77L70.09-2.77ZM80.82-32.3L80.82-18.9Q80.82-17.97 79.94-17.97L79.94-17.97 78.13-17.97 78.13-33.18 79.94-33.18Q80.82-33.18 80.82-32.3L80.82-32.3ZM70.09-17.97L70.09-32.3Q70.09-33.18 70.97-33.18L70.97-33.18 72.77-33.18 72.77-17.97 70.09-17.97ZM93.47-26.15L93.47-29.71 97.29-29.71 97.29-26.15Q97.29-20.57 96.94-15.69L96.94-15.69Q96.81-14.19 96.64-12.92L96.64-12.92Q96.55-11.82 96.55-11.91L96.55-11.91 92.68-11.91Q93.47-18.15 93.47-26.15L93.47-26.15ZM102.7-37.66L102.7-25.97 105.69-24.17 105.69-20 102.7-21.8 102.7 1.41 98.09 1.41 98.09-37.66 102.7-37.66ZM115.49-37.66L120.85-37.66 121.6-35.9 132.06-35.9 132.06-32.3 113.07-32.3Q112.15-32.3 112.15-31.42L112.15-31.42 112.15-9.05Q112.15-2.77 111.27 1.71L111.27 1.71 105.91 1.71Q106.79-3.65 106.79-9.05L106.79-9.05 106.79-33.66Q106.79-34.58 107.45-35.24L107.45-35.24Q108.11-35.9 109.03-35.9L109.03-35.9 116.19-35.9 115.49-37.66ZM124.01-23.51L125.77-23.51 125.77-25.14Q125.77-26.06 124.89-26.06L124.89-26.06 124.01-26.06 124.01-23.51ZM124.01-19.95L124.01-17.27 124.89-17.27Q125.77-17.27 125.77-18.15L125.77-18.15 125.77-19.95 124.01-19.95ZM128.94-13.67L124.89-13.67 124.89-0.53Q124.89 0.4 124.23 1.05L124.23 1.05Q123.57 1.71 122.65 1.71L122.65 1.71 118.61 1.71 117.73-1.89 118.61-1.89Q119.53-1.89 119.53-2.77L119.53-2.77 119.53-13.67 113.69-13.67 113.69-17.27 119.53-17.27 119.53-19.95 113.25-19.95 113.25-23.51 119.53-23.51 119.53-26.06 113.69-26.06 113.69-29.62 119.53-29.62 119.53-31.42 124.01-31.42 124.01-29.62 128.94-29.62Q129.86-29.62 130.52-28.96L130.52-28.96Q131.18-28.3 131.18-27.38L131.18-27.38 131.18-23.51 132.06-23.51 132.06-19.95 131.18-19.95 131.18-15.91Q131.18-14.99 130.52-14.33L130.52-14.33Q129.86-13.67 128.94-13.67L128.94-13.67ZM115-7.38L119.09-7.38 117.29-12.35 113.25-12.35 115-7.38ZM129.42-7.38L125.33-7.38 127.13-12.35 131.18-12.35 129.42-7.38ZM115-6.5L119.09-6.5 116.41 0.83 112.37 0.83 115-6.5ZM129.42-6.5L125.33-6.5 128.01 0.83 132.06 0.83 129.42-6.5ZM138.52-26.15L138.52-29.66 142.78-29.66 142.78-26.15Q142.78-20.57 142.34-15.69L142.34-15.69Q142.21-14.15 142.08-12.88L142.08-12.88Q141.94-11.82 141.94-11.91L141.94-11.91 137.68-11.91Q138.52-18.15 138.52-26.15L138.52-26.15ZM160.71 0.83L152.71 0.83Q151.88 0.83 151.3 0.18L151.3 0.18Q150.73-0.48 150.73-1.41L150.73-1.41 150.73-20.7 148.71-21.75 148.71 1.71 143.61 1.71 143.61-37.66 148.71-37.66 148.71-25.97 150.73-24.87 150.73-34.54Q150.73-35.46 151.3-36.12L151.3-36.12Q151.88-36.78 152.71-36.78L152.71-36.78 160.71-36.78Q161.54-36.78 162.11-36.12L162.11-36.12Q162.69-35.46 162.69-34.54L162.69-34.54 162.69-17.53Q162.69-16.61 162.11-15.95L162.11-15.95Q161.54-15.29 160.71-15.29L160.71-15.29 155.52-15.29 155.52-3.65Q155.52-2.77 156.31-2.77L156.31-2.77 157.1-2.77Q157.46-2.77 157.63-3.08L157.63-3.08Q157.76-3.34 157.72-3.6L157.72-3.6 156.49-12.61 161.32-12.61 162.47-3.82Q162.69-2.77 162.69-1.67L162.69-1.67 162.69-1.41Q162.69-0.48 162.11 0.18L162.11 0.18Q161.54 0.83 160.71 0.83L160.71 0.83ZM157.9-19.78L157.9-24.26 155.52-24.26 155.52-18.9 157.1-18.9Q157.9-18.9 157.9-19.78L157.9-19.78ZM155.52-32.3L155.52-27.82 157.9-27.82 157.9-32.3Q157.9-33.22 157.1-33.22L157.1-33.22 156.31-33.22Q155.52-33.22 155.52-32.3L155.52-32.3ZM177.1-33.22L173.89-33.22 173.89-19.78 177.1-19.78 177.1-16.22 172.84-16.22 172.31-14.41 174.68-14.41 174.68-2.77Q174.68-1.89 175.47-1.89L175.47-1.89 177.1-1.89 176.31 1.71 171.91 1.71Q171.08 1.71 170.46 1.05L170.46 1.05Q169.89 0.4 169.89-0.53L169.89-0.53 169.89-6.33 167.52 1.71 162.69 1.71 168.05-16.22 165.5-16.22Q164.66-16.22 164.09-16.83L164.09-16.83Q163.52-17.49 163.52-18.41L163.52-18.41 163.52-19.69Q163.52-19.78 163.52-19.86L163.52-19.86 164.31-31.42 168.31-31.42 167.56-20.74Q167.52-19.78 168.35-19.78L168.35-19.78 169.1-19.78 169.1-33.22 163.52-33.22 163.52-36.78 177.1-36.78 177.1-33.22Z" transform="translate(-2.7200000286102295, 37.65999984741211)"></path></g> <!----> <!----> <!----> <!----> <!----> <!----> <!----></g></g> <g data-gra="path-slogan" fill-rule="" class="tp-slogan iconsvg-slogansvg" fill="#333" transform="translate(42.355003356933594,45.369998931884766)"><!----> <!----> <g transform="scale(1, 1)"><g transform="scale(1)"><path d="M2.06-5.06L6.56-5.06L6.56-8.58L7.73-8.58L7.73 0L6.56 0L6.56-3.98L2.06-3.98L2.06 0L0.89 0L0.89-8.58L2.06-8.58L2.06-5.06ZM10.83-1.03L15.98-1.03L15.98 0L9.66 0L9.66-8.58L15.89-8.58L15.89-7.59L10.83-7.59L10.83-4.92L15.52-4.92L15.52-3.89L10.83-3.89L10.83-1.03ZM23.02-3.89L18.80-3.89L18.80 0L17.63 0L17.63-8.58L23.58-8.58L23.58-7.59L18.80-7.59L18.80-4.92L23.02-4.92L23.02-3.89ZM26.06-1.03L31.22-1.03L31.22 0L24.89 0L24.89-8.58L31.13-8.58L31.13-7.59L26.06-7.59L26.06-4.92L30.75-4.92L30.75-3.89L26.06-3.89L26.06-1.03ZM32.91-8.58L34.08-8.58L34.08 0L32.91 0L32.91-8.58ZM41.91-4.31L40.55-3.05L40.55 0L39.38 0L39.38-8.58L40.55-8.58L40.55-4.41L44.72-8.58L46.36-8.58L42.75-5.11L46.45 0L44.91 0L41.91-4.31ZM53.02 0L52.17-2.48L48.70-2.48L47.81 0L46.64 0L49.88-8.58L51.19-8.58L54.28 0L53.02 0ZM50.44-7.31L49.08-3.52L51.75-3.52L50.48-7.31L50.44-7.31ZM56.72-8.58L61.03-1.64L61.03-8.58L62.16-8.58L62.16 0L60.84 0L56.48-6.94L56.44-6.94L56.44 0L55.31 0L55.31-8.58L56.72-8.58ZM70.36-3.61L67.73-3.61L67.73-4.59L71.48-4.59L71.48 0L70.73 0L70.45-1.08Q69.47 0.09 67.64 0.14L67.64 0.14Q65.91 0.14 64.97-0.75L64.97-0.75Q63.56-2.06 63.61-4.36L63.61-4.36Q63.94-8.63 67.69-8.81L67.69-8.81Q70.88-8.63 71.34-6L71.34-6L70.22-6Q69.75-7.78 67.64-7.83L67.64-7.83Q64.97-7.64 64.83-4.31L64.83-4.31Q64.83-0.75 67.69-0.75L67.69-0.75Q68.72-0.75 69.47-1.31L69.47-1.31Q70.41-2.06 70.36-3.61L70.36-3.61ZM75.80-4.31L74.44-3.05L74.44 0L73.27 0L73.27-8.58L74.44-8.58L74.44-4.41L78.61-8.58L80.25-8.58L76.64-5.11L80.34 0L78.80 0L75.80-4.31ZM86.91 0L86.06-2.48L82.59-2.48L81.70 0L80.53 0L83.77-8.58L85.08-8.58L88.17 0L86.91 0ZM84.33-7.31L82.97-3.52L85.64-3.52L84.38-7.31L84.33-7.31ZM89.39-8.58L90.56-8.58L90.56 0L89.39 0L89.39-8.58Z" transform="translate(-0.890625, 8.8125)"></path></g></g></g></g></g><defs v-gra="od"></defs></svg>